<svg width="648" height="216" viewBox="0 0 648 216" fill="none" xmlns="http://www.w3.org/2000/svg">
<path d="M648 0H0V216H648V0Z" fill="black"/>
<path fill-rule="evenodd" clip-rule="evenodd" d="M300.527 58.1304C328.305 58.1304 350.823 80.7255 350.823 108.598C350.823 136.471 328.305 159.066 300.527 159.066C272.75 159.066 250.232 136.471 250.232 108.598C250.232 80.7255 272.75 58.1304 300.527 58.1304ZM300.527 88.5514L279.877 109.272L300.527 129.993L321.178 109.272L300.527 88.5514Z" fill="white"/>
<path fill-rule="evenodd" clip-rule="evenodd" d="M131.206 56.6348L165.344 158.774L192.727 118.141L219.701 158.774L253.617 56.6348H223.015L213.116 80.027L192.412 56.6348L172.154 81.3267L161.576 56.6348H131.206Z" fill="white"/>
<path fill-rule="evenodd" clip-rule="evenodd" d="M406.194 57.9688C415.809 57.9688 437.541 67.7705 437.541 89.8572C437.541 104.582 430.297 115.741 415.809 123.335L438.978 155.939H364.904V57.9688H406.194ZM398.29 79.8557C391.375 79.8557 385.77 85.4552 385.77 92.3625C385.77 99.2699 391.375 104.869 398.29 104.869C405.204 104.869 410.809 99.2699 410.809 92.3625C410.809 85.4552 405.204 79.8557 398.29 79.8557Z" fill="white"/>
<path fill-rule="evenodd" clip-rule="evenodd" d="M517.82 58.1304V81.9599L540.757 58.1304L560 79.2104L530.605 107.914L560 136.928L540.757 155.861L517.82 133.161V155.861H491.506V133.161L468.223 155.861L449.499 136.928L479.252 108.598L449.499 79.2104L468.223 58.1304L491.506 81.9599V58.1304H517.82ZM504.492 90.1794L486.136 108.598L504.492 127.017L522.848 108.598L504.492 90.1794Z" fill="white"/>
<path fill-rule="evenodd" clip-rule="evenodd" d="M88.5 56.9268H98.3504V75.5472H102.913V66.237H112.89V56.9268H122.664V86.2547H88.5V56.9268Z" fill="white"/>
<path fill-rule="evenodd" clip-rule="evenodd" d="M88.5 93.8794H122.664V103.714H113.464V112.95H122.664V122.938H88.5V112.95H98.0788V103.38H88.5V93.8794Z" fill="white"/>
<path fill-rule="evenodd" clip-rule="evenodd" d="M88.4307 128.801V158.902H97.42V148.67H122.665V138.287H97.42V128.801H88.4307Z" fill="white"/>
</svg>
